<?xml version="1.0" encoding="utf-8"?>
<!-- Generator: Adobe Illustrator 23.0.2, SVG Export Plug-In . SVG Version: 6.00 Build 0)  -->
<svg version="1.1" id="Camada_1" xmlns="http://www.w3.org/2000/svg" xmlns:xlink="http://www.w3.org/1999/xlink" x="0px" y="0px"
	 viewBox="0 0 647.1 647.1" style="enable-background:new 0 0 647.1 647.1;" xml:space="preserve">
<style type="text/css">
	.st0{clip-path:url(#SVGID_2_);fill:#FEFEFE;}
	.st1{fill:#FFFFFF;}
	.st2{font-family:'KelsonSans-Regular';}
	.st3{font-size:175.6414px;}
</style>
<g>
	<g>
		<defs>
			<rect id="SVGID_1_" x="49.77" width="547.56" height="411.5"/>
		</defs>
		<clipPath id="SVGID_2_">
			<use xlink:href="#SVGID_1_"  style="overflow:visible;"/>
		</clipPath>
		<path class="st0" d="M389.79,5.52l-18.47-5.07c-2.39-0.79-4.73-0.53-7,0.75c-2.29,1.28-3.84,3.23-4.63,5.83L248.53,391.74
			c-0.79,2.57-0.54,5.02,0.75,7.31c1.28,2.29,3.21,3.82,5.8,4.61l18.49,5.07c2.38,0.8,4.71,0.55,7-0.75
			c2.29-1.28,3.82-3.21,4.63-5.81L396.34,17.45c0.8-2.59,0.55-5.02-0.73-7.31C394.3,7.86,392.38,6.31,389.79,5.52L389.79,5.52z
			 M389.79,5.52"/>
	</g>
	<path class="st1" d="M223.21,80.62c0-2.57-0.98-4.86-2.99-6.86l-14.9-14.9c-1.98-1.98-4.27-2.98-6.86-2.98
		c-2.57,0-4.86,1-6.86,2.98L52.75,197.73c-1.98,2-2.98,4.29-2.98,6.86c0,2.59,1,4.88,2.98,6.86l138.86,138.87
		c2,2,4.27,2.98,6.86,2.98c2.59,0,4.88-0.98,6.86-2.98l14.9-14.88c2-2,2.99-4.29,2.99-6.86c0-2.59-0.98-4.88-2.99-6.86
		L103.12,204.59L220.22,87.48C222.23,85.5,223.21,83.21,223.21,80.62L223.21,80.62z M223.21,80.62"/>
	<path class="st1" d="M592.14,197.73L453.26,58.87c-1.98-1.98-4.27-2.98-6.84-2.98c-2.59,0-4.87,1-6.86,2.98l-14.9,14.9
		c-2,1.98-2.98,4.27-2.98,6.86c0,2.59,0.98,4.88,2.98,6.86l117.11,117.11L424.67,321.72c-2,1.98-2.98,4.27-2.98,6.86
		c0,2.57,0.98,4.86,2.98,6.86l14.9,14.88c1.98,2,4.27,2.98,6.86,2.98c2.57,0,4.86-0.98,6.84-2.98l138.88-138.87
		c1.98-1.98,2.96-4.27,2.96-6.86C595.11,202,594.13,199.71,592.14,197.73L592.14,197.73z M592.14,197.73"/>
</g>
<text transform="matrix(1 0 0 1 137.723 602.6595)" class="st1 st2 st3">HTML</text>
</svg>
