<?xml version="1.0" encoding="utf-8"?>
<!-- Generator: Adobe Illustrator 23.0.2, SVG Export Plug-In . SVG Version: 6.00 Build 0)  -->
<svg version="1.1" id="Camada_1" xmlns="http://www.w3.org/2000/svg" xmlns:xlink="http://www.w3.org/1999/xlink" x="0px" y="0px"
	 viewBox="0 0 684.5 720.6" style="enable-background:new 0 0 684.5 720.6;" xml:space="preserve">
<style type="text/css">
	.st0{fill:#FFFFFF;}
	.st1{font-family:'KelsonSans-Regular';}
	.st2{font-size:180.8704px;}
</style>
<g>
	<path class="st0" d="M562.7,62c-13.7,0-26.9,0.4-39.6,1V17c0-9.4-7.6-17-17-17C419,0,360.8,34.5,327.4,63.4
		c-16.7,14.4-29,28.9-37.6,40.5c-8.5-11.6-20.9-26.1-37.6-40.5C218.8,34.5,160.7,0,73.6,0c-9.4,0-17,7.6-17,17v46.2
		C43.7,62.4,30.5,62,17,62C7.6,62,0,69.6,0,79v405.9c0,9.4,7.6,17,17,17c151.9,0,263.7,54.1,265.3,54.9c2.4,1.2,5,1.8,7.5,1.8
		c2.8,0,5.7-0.7,8.2-2.1c0,0,0,0,0,0c1-0.5,100.1-54.5,264.6-54.5c9.4,0,17-7.6,17-17V79C579.7,69.6,572.1,62,562.7,62L562.7,62z
		 M489.1,34.5v31C427.1,71.4,377.6,84,342.4,95.6c2.6-2.5,5.4-5,8.3-7.5C388.9,55.6,435.4,37.6,489.1,34.5L489.1,34.5z M90.6,34.5
		c53.7,3.1,100.2,21.1,138.3,53.7c3.7,3.2,7.2,6.3,10.4,9.5c-36.1-11.9-87.3-25.3-148.7-31.7V34.5z M34,96.2
		c118.7,3.1,210.2,38.1,238.9,50.4v369c-40.5-16.1-127.7-44.8-238.9-47.5V96.2z M545.7,468.1c-116.9,2.5-199.8,30.3-238.9,46.7
		V146.1c26.4-12.4,111.6-47.1,238.9-50V468.1z"/>
	<path class="st0" d="M357.8,465.3c1.7,0,3.4-0.2,5-0.8c41.6-12.9,86.5-21.7,133.5-25.9c9.3-0.8,16.2-9.1,15.4-18.5
		c-0.8-9.3-9.1-16.2-18.4-15.4c-49.3,4.5-96.6,13.7-140.5,27.3c-9,2.8-14,12.3-11.2,21.3C343.8,460.6,350.5,465.3,357.8,465.3
		L357.8,465.3z"/>
	<path class="st0" d="M357.8,397.4c1.7,0,3.4-0.2,5-0.8c41.6-12.9,86.5-21.7,133.5-25.9c9.3-0.8,16.2-9.1,15.4-18.5
		c-0.8-9.3-9.1-16.2-18.4-15.4c-49.3,4.5-96.6,13.7-140.5,27.3c-9,2.8-14,12.3-11.2,21.3C343.8,392.7,350.5,397.4,357.8,397.4
		L357.8,397.4z"/>
	<path class="st0" d="M357.8,329.4c1.7,0,3.4-0.2,5-0.8c41.6-12.9,86.5-21.7,133.5-25.9c9.3-0.8,16.2-9.1,15.4-18.5
		c-0.8-9.3-9.1-16.2-18.4-15.4c-49.3,4.5-96.6,13.7-140.5,27.3c-9,2.8-14,12.3-11.2,21.3C343.8,324.8,350.5,329.4,357.8,329.4
		L357.8,329.4z"/>
	<path class="st0" d="M357.8,261.5c1.7,0,3.4-0.2,5-0.8c41.6-12.9,86.5-21.7,133.5-25.9c9.3-0.8,16.2-9.1,15.4-18.5
		c-0.8-9.3-9.1-16.2-18.4-15.4c-49.3,4.5-96.6,13.7-140.5,27.3c-9,2.8-14,12.3-11.2,21.3C343.8,256.8,350.5,261.5,357.8,261.5
		L357.8,261.5z"/>
	<path class="st0" d="M357.8,193.6c1.7,0,3.4-0.2,5-0.8c41.6-12.9,86.5-21.7,133.5-25.9c9.3-0.8,16.2-9.1,15.4-18.5
		c-0.8-9.3-9.1-16.2-18.4-15.4c-49.3,4.5-96.6,13.7-140.5,27.3c-9,2.8-14,12.3-11.2,21.3C343.8,188.9,350.5,193.6,357.8,193.6
		L357.8,193.6z"/>
	<path class="st0" d="M226.4,432.1c-43.9-13.6-91.2-22.8-140.5-27.3c-9.3-0.8-17.6,6-18.4,15.4c-0.8,9.3,6,17.6,15.4,18.4
		c46.9,4.3,91.8,13,133.5,25.9c1.7,0.5,3.4,0.8,5,0.8c7.2,0,13.9-4.7,16.2-11.9C240.3,444.4,235.3,434.9,226.4,432.1L226.4,432.1z"
		/>
	<path class="st0" d="M226.4,364.2c-43.9-13.6-91.2-22.8-140.5-27.3c-9.3-0.8-17.6,6-18.4,15.4c-0.8,9.3,6,17.6,15.4,18.4
		c46.9,4.3,91.8,13,133.5,25.9c1.7,0.5,3.4,0.8,5,0.8c7.2,0,13.9-4.7,16.2-11.9C240.3,376.5,235.3,366.9,226.4,364.2L226.4,364.2z"
		/>
	<path class="st0" d="M226.4,296.2c-43.9-13.6-91.2-22.8-140.5-27.3c-9.3-0.8-17.6,6-18.4,15.4c-0.8,9.3,6,17.6,15.4,18.4
		c46.9,4.3,91.8,13,133.5,25.9c1.7,0.5,3.4,0.8,5,0.8c7.2,0,13.9-4.7,16.2-11.9C240.3,308.5,235.3,299,226.4,296.2L226.4,296.2z"/>
	<path class="st0" d="M82.8,234.8c46.9,4.3,91.8,13,133.5,25.9c1.7,0.5,3.4,0.8,5,0.8c3.6,0,7.1-1.1,10.1-3.3
		c4.3-3.2,6.9-8.3,6.9-13.7v-67.9c0-7.4-4.8-14-11.9-16.2c-43.9-13.6-91.2-22.8-140.5-27.3c-4.8-0.4-9.5,1.2-13,4.4
		s-5.5,7.8-5.5,12.5v67.9C67.4,226.7,74.1,234,82.8,234.8L82.8,234.8z M101.3,168.8c35.8,4.2,70.4,11.1,103,20.4v32.7
		c-32.8-8.9-67.3-15.4-103-19.3V168.8z"/>
</g>
<text transform="matrix(1 0 0 1 9.155273e-05 720.63)" class="st0 st1 st2">JORNAL</text>
</svg>
